<?xml version="1.0" encoding="utf-8"?>
<!-- Svg Vector Icons : http://www.onlinewebfonts.com/icon -->
<!DOCTYPE svg PUBLIC "-//W3C//DTD SVG 1.1//EN" "http://www.w3.org/Graphics/SVG/1.1/DTD/svg11.dtd">
<svg version="1.1" xmlns="http://www.w3.org/2000/svg" xmlns:xlink="http://www.w3.org/1999/xlink" x="0px" y="0px" viewBox="0 0 1000 1000" enable-background="new 0 0 1000 1000" xml:space="preserve">
<metadata> Svg Vector Icons : http://www.onlinewebfonts.com/icon </metadata>
<g><g transform="translate(0.000000,511.000000) scale(0.100000,-0.100000)"><path d="M4624.1,4991.4c-1175.2-150.4-2162.4-1028.8-2453.3-2184.2c-75.2-294.8-98.9-563.9-98.9-1107.9v-459l-124.6-9.9c-332.4-27.7-623.2-302.7-686.5-652.9c-13.8-75.2-19.8-741.9-15.8-1978.4c7.9-1847.9,7.9-1867.6,49.5-2018c187.9-668.7,615.3-1111.9,1264.2-1315.7l176.1-55.4H5000h2265.3l176.1,55.4c648.9,203.8,1076.3,647,1264.2,1315.7c41.6,150.4,41.6,172.1,49.5,2018c4,1242.5-2,1903.3-15.8,1978.4c-63.3,352.2-350.2,625.2-684.5,652.9l-126.6,9.9v457c-2,836.9-73.2,1220.7-322.5,1709.4c-445.1,874.5-1286,1466-2249.5,1584.7C5164.2,5017.2,4814,5015.2,4624.1,4991.4z M5387.8,4409.8c842.8-148.4,1545.2-738,1824.1-1533.3c116.7-332.4,130.6-449.1,132.6-1068.4v-563.9H5000H2655.5v563.9c2,621.2,15.8,734,130.6,1064.4c118.7,334.4,288.9,607.4,538.1,860.6c344.3,350.2,793.4,587.6,1272.1,674.6C4808.1,4445.4,5174.1,4445.4,5387.8,4409.8z M8090.3,621.1c27.7-19.8,61.3-63.3,73.2-95c17.8-41.6,21.7-526.3,17.8-1903.3c-7.9-2063.5,2-1911.2-146.4-2198c-140.5-267.1-413.5-498.6-702.4-593.5l-146.4-47.5H5000H2813.8l-146.4,47.5c-288.9,95-561.9,326.4-702.3,593.5c-148.4,286.9-140.5,148.4-140.5,2243.5V545.9l65.3,57.4l63.3,57.4H4998C7993.4,660.6,8042.9,660.6,8090.3,621.1z"/><path d="M4725-399.8c-352.2-95-650.9-397.7-743.9-749.8c-37.6-150.4-37.6-383.8,0-534.2c83.1-316.6,334.4-593.5,648.9-712.2l93-35.6v-461v-463h277h277v463v462.9l114.8,41.5c140.5,53.4,326.4,187.9,427.3,312.6c263.1,326.4,304.7,783.5,104.9,1161.3c-126.6,239.4-389.8,447.1-656.8,516.4C5122.7-360.3,4867.4-362.2,4725-399.8z M5207.7-989.4c435.3-201.8,308.6-864.6-170.1-898.2c-209.7-15.8-381.8,81.1-464.9,263.1c-83.1,174.1-49.5,403.6,77.2,542.1C4774.5-945.9,5025.7-904.3,5207.7-989.4z"/></g></g>
</svg>