<svg width="25" height="32" viewBox="0 0 25 32" fill="none" xmlns="http://www.w3.org/2000/svg">
<g filter="url(#filter0_d_970_30)">
<path d="M20 4.56757V22.95C20 22.9776 19.9776 23 19.95 23H5.05C5.02239 23 5 22.9776 5 22.95V1.05C5 1.02239 5.02239 1 5.05 1H17.474C17.4903 1 17.5056 1.00795 17.5149 1.02131L20 4.56757ZM20 4.56757H17.55C17.5224 4.56757 17.5 4.54518 17.5 4.51757V1.5M18 3.5H18.95C18.9776 3.5 19 3.52239 19 3.55V3.95C19 3.97761 18.9776 4 18.95 4H18.05C18.0224 4 18 3.97761 18 3.95V2.5" stroke="white"/>
<path d="M8 7H17.5M8 10.5H17.5M8 13.5H17.5M8 16.5H17.5" stroke="white" stroke-width="0.4"/>
</g>
<defs>
<filter id="filter0_d_970_30" x="0.5" y="0.5" width="24" height="31" filterUnits="userSpaceOnUse" color-interpolation-filters="sRGB">
<feFlood flood-opacity="0" result="BackgroundImageFix"/>
<feColorMatrix in="SourceAlpha" type="matrix" values="0 0 0 0 0 0 0 0 0 0 0 0 0 0 0 0 0 0 127 0" result="hardAlpha"/>
<feOffset dy="4"/>
<feGaussianBlur stdDeviation="2"/>
<feComposite in2="hardAlpha" operator="out"/>
<feColorMatrix type="matrix" values="0 0 0 0 0 0 0 0 0 0 0 0 0 0 0 0 0 0 0.25 0"/>
<feBlend mode="normal" in2="BackgroundImageFix" result="effect1_dropShadow_970_30"/>
<feBlend mode="normal" in="SourceGraphic" in2="effect1_dropShadow_970_30" result="shape"/>
</filter>
</defs>
</svg>
