<svg viewBox="0 0 40 41" xmlns="http://www.w3.org/2000/svg">
<path d="M18.6903 18.7789L0.399902 37.1473L1.7095 38.4625L3.0103 39.7689L7.2579 35.5032L11.4963 31.2467L18.8495 31.2202L26.1939 31.1937L26.6719 30.998C27.8223 30.5272 28.6539 29.6652 28.9815 28.5986C29.1319 28.1009 29.1583 27.7723 29.1583 26.288C29.1583 24.9371 29.1847 24.5639 29.2735 24.5997C29.3267 24.6173 30.6983 25.1327 32.2999 25.7373C35.4323 26.9103 35.7599 26.9902 36.2111 26.6528C36.7419 26.2531 36.7243 26.5194 36.7243 19.8636C36.7243 13.9006 36.7243 13.7673 36.5475 13.4652C36.3175 13.0743 35.8483 12.8164 35.4591 12.8787C35.3087 12.9052 33.8399 13.4206 32.2115 14.034C30.5831 14.647 29.2295 15.1536 29.2031 15.1536C29.1767 15.1536 29.1587 14.7804 29.1587 14.3361V13.5094L34.3795 8.2663L39.5999 3.02324L38.2903 1.70805L36.9895 0.401707L18.6903 18.7789Z" fill="#CFD9E4"/>
<path d="M9.80625 8.58606C8.74425 8.71943 7.60305 9.50155 7.09865 10.4166C6.58545 11.3675 6.59425 11.2875 6.59425 18.7078V25.5059L15.0002 17.0641C19.6282 12.4252 23.4066 8.5953 23.4066 8.55955C23.4066 8.46193 10.505 8.48845 9.80625 8.58606Z" fill="#CFD9E4"/>
</svg>
