<svg
  xmlns="http://www.w3.org/2000/svg"
  width="20"
  height="20"
  viewBox="0 0 20 20"
>
  <path
    fill="#fff"
    fill-rule="evenodd"
    d="M340 5607a2 2 0 1 1-3.999.001A2 2 0 0 1 340 5607m-10 2a2 2 0 1 1-.001-3.999A2 2 0 0 1 330 5609m8.904 2.453c-.962 5.478-8.846 5.374-9.808-.104-.105-.598.386-.934.994-.934h7.82c.608 0 1.099.44.994 1.038M334 5617c-4.411 0-8-3.589-8-8s3.589-8 8-8 8 3.589 8 8-3.589 8-8 8m0-18c-5.523 0-10 4.477-10 10s4.477 10 10 10 10-4.477 10-10-4.477-10-10-10"
    transform="translate(-324 -5599)"
  />
</svg>
