<?xml version="1.0" encoding="utf-8"?>
<svg class="eye" version="1.1" xmlns="http://www.w3.org/2000/svg" xmlns:xlink="http://www.w3.org/1999/xlink" x="0px" y="0px" viewBox="0 0 1000 1000" enable-background="new 0 0 1000 1000" xml:space="preserve">
<g><g transform="translate(0.000000,511.000000) scale(0.100000,-0.100000)"><path d="M4596.6,2760.2c-1244.7-124.9-2439.4-685.7-3567-1675C797.3,881.7,382.4,457.2,221,259.3L100,109.5L221-38.4c178.6-220.9,549.3-597.4,822.1-837.5c922-810.6,1920.8-1344.6,2929.2-1567.4c656.9-144.1,1398.4-144.1,2055.3,0c941.2,207.5,1872.8,687.7,2769.8,1427.2c247.8,205.5,814.4,768.3,983.4,977.7L9900,109.5l-119.1,149.8c-188.3,234.3-789.5,820.2-1069.9,1044.9c-1008.4,804.8-1961.2,1254.3-3013.8,1417.6C5416.8,2766,4850.2,2785.2,4596.6,2760.2z M3617,1957.3c-128.7-98-368.8-340-461-464.8c-188.2-253.5-309.3-509-399.5-843.2c-44.2-167.1-48-219-48-539.8c0-320.8,3.8-372.6,48-539.8c88.3-324.6,184.4-535.9,357.3-785.6c105.6-149.8,343.8-399.5,470.6-493.6c49.9-38.4,88.4-71.1,84.5-74.9c-13.5-15.4-345.7,109.5-589.7,220.9c-530.1,242-1052.6,578.2-1575.1,1016.1C1242.9-330.4,831.8,75,831.8,111.4c0,40.3,413,439.9,697.3,676.1c620.4,516.7,1162.1,847.1,1819,1110.2C3655.4,2020.7,3718.8,2036.1,3617,1957.3z M6594.3,1920.8C7306.9,1655.8,8082.9,1156.4,8784,511c261.2-242,384.2-370.7,384.2-403.4c0-51.8-505.1-528.2-868.2-818.3c-215.2-171-607-438-866.3-591.6c-315-184.4-841.3-418.7-1069.9-478.3c-42.2-11.5-40.3-7.7,19.2,40.4c149.8,117.2,386.1,363,486,501.3c184.4,257.4,322.7,574.3,399.5,916.2c17.3,74.9,26.9,232.4,25,451.4c-1.9,295.8-7.7,357.3-49.9,520.5c-90.3,332.3-211.3,587.8-399.6,843.2c-90.3,121-324.6,359.2-461,466.8c-59.5,48-61.4,51.9-19.2,40.3C6390.7,1993.8,6494.4,1957.3,6594.3,1920.8z M5420.7,1819c487.9-117.2,927.8-470.6,1160.2-931.6c138.3-274.7,205.5-656.9,169-960.4c-84.5-712.6-553.2-1283.1-1227.4-1496.3c-845.2-265.1-1749.9,142.1-2128.3,958.5c-201.7,438-201.7,1002.7,0,1440.6c259.3,562.8,770.2,941.2,1384.9,1027.6C4942.4,1880.5,5234.4,1863.2,5420.7,1819z"/><path d="M4809.8,1048.8c-48-9.6-149.8-46.1-228.6-84.5c-366.9-172.9-589.7-591.6-528.2-991.1c65.3-413,388-737.6,808.7-808.7C5472.5-939.3,6048.8-363,5945.1,249.7C5852.9,793.3,5341.9,1154.4,4809.8,1048.8z"/></g></g>
</svg>
