<?xml version="1.0" encoding="utf-8"?>
<svg version="1.1" id="Layer_1" xmlns="http://www.w3.org/2000/svg" xmlns:xlink="http://www.w3.org/1999/xlink" x="0px" y="0px"
	 viewBox="0 0 812 812" style="enable-background:new 0 0 512 512;" xml:space="preserve">
<style type="text/css">
	.st0{fill:#fff;}
</style>
<g>
	<path class="st0" d="M281.6,153.6c42.4,0,76.8,34.4,76.8,76.8c0,14.1,11.5,25.6,25.6,25.6s25.6-11.5,25.6-25.6
		c0-70.7-57.3-128-128-128c-14.1,0-25.6,11.5-25.6,25.6S267.5,153.6,281.6,153.6z"/>
	<path class="st0" d="M281.6,51.2c99,0,179.2,80.2,179.2,179.2c0,14.1,11.5,25.6,25.6,25.6c14.1,0,25.6-11.5,25.6-25.6
		C512,103.2,408.8,0,281.6,0C267.5,0,256,11.5,256,25.6S267.5,51.2,281.6,51.2z"/>
	<path class="st0" d="M505.6,356.1c-2.9-8.4-9.8-14.6-18.4-16.6l-153.6-35.1c-8.5-1.9-17.3,0.6-23.5,6.6c-3.6,3.3-3.8,3.6-20.5,35.3
		c-55.2-25.4-99.5-69.9-124.7-125.2c32.5-16.4,32.8-16.4,36.1-20.2c6.1-6.2,8.6-15.1,6.7-23.5L172.5,25.6c-2-8.6-8.3-15.6-16.6-18.4
		c-6-2.1-12.1-3.7-18.4-4.6C131,1.1,124.4,0.2,117.8,0C52.7,0,0,52.7,0,117.8c0.3,217.6,176.6,394,394.2,394.2
		c65,0,117.8-52.7,117.8-117.8c0-6.5-0.5-13-1.5-19.4C509.4,368.4,507.8,362.2,505.6,356.1z M394.2,460.8
		c-189.4-0.1-342.9-153.6-343-343c0.1-36.7,29.9-66.4,66.6-66.6h8.4L153.6,170l-13.8,7.2c-22,11.5-39.4,20.7-30.2,40.7
		c30.4,86,97.9,153.8,183.8,184.6c21.5,8.7,30-7.4,41.5-29.7l7.4-14.1l118.5,27.1c0,2.8,0,5.6,0,8.4
		C460.6,430.9,430.9,460.7,394.2,460.8z"/>
</g>
</svg>
