<?xml version="1.0" encoding="utf-8"?>
<svg version="1.1" xmlns="http://www.w3.org/2000/svg" xmlns:xlink="http://www.w3.org/1999/xlink" x="0px" y="0px" viewBox="0 0 1000 1000" enable-background="new 0 0 1000 1000" xml:space="preserve">
<g><path d="M579.4,999H438.2c-37.1,0-70-42.3-70-75.9v-50.5c-10.8-4.7-24.6-10.1-37.5-16.2l-32.2,34.4c-25.4,25.5-66.6,24.9-90.6,1l-99.8-99.3c-12-12-18.7-27.8-18.7-44.5c0-16.7,6.6-32.4,18.6-44.5l38.6-37.5c-3.8-8.3-7.5-14.5-10.8-25.2H86.4c-33.2,0-76.4-34-76.4-70.7V428.9c0-37.1,42.8-69.6,76.4-69.6h49.9c4.6-13.2,9.9-24.8,15.9-37.6l-43.6-41.2C96,267.9,89.3,251.9,89.2,235c-0.1-17.1,6.5-33.1,18.5-45.1L207.1,90c24.1-24.1,65.1-24,89.1,0l45.2,46.4c8.5-4,18.3-7.8,26.7-11.5V58.2c0-32.6,30.1-57.2,70-57.2h141.2c34.5,0,72.7,20,72.7,57.2v65.6c7.2,3.6,17.6,7.4,26,11.2l41.3-44.6c25.4-25.4,66.4-24.9,90.4-0.9l99.7,99.4c12,12,18.6,27.9,18.6,44.6c0,16.7-6.6,32.6-18.6,44.5L867.6,319c6.5,13.8,12.3,27.1,17.2,40.3h47.7c32.6,0,57.5,29.7,57.5,69.6v141.2c0,34.5-20.4,70.7-57.5,70.7h-47.3c-3.8,12-7.6,18.8-11.5,27.2l35.3,32.6c12.8,12.8,19.5,28.7,19.6,45.6c0.1,17.1-6.5,33.1-18.5,45.1l-99.3,99.8c-24.1,24.1-64.9,24.1-89,0l-31.9-33.9c-13.2,6.2-26.9,11.6-37.7,16.3v49.4C652.2,956.3,616.1,999,579.4,999z M338.6,796.9c16.7,9.5,37.5,18,54.3,24.8c5.3,2.1,10.2,4.2,14.6,6l6.3,2.4c7,3,12,9.8,12,17.3v75.6c0,3.2,2.7,8.5,6.3,12.8c3.6,4.4,8.7,6.9,14.3,6.9l126.3-0.1c5.2,0,10.4-2.2,13.9-6c4.2-4.5,8.1-10.3,8.1-13.8v-74.5c0-7.6,4.3-14.5,11.4-17.4l5.7-2.4c4.5-1.9,9.5-3.9,14.9-6.1c16.8-6.7,37.8-15.1,54.6-24.5l6.3-3.6c7.5-4.2,16.8-2.8,22.8,3.4l42.4,44.2c3.5,3.7,8.3,5.7,13.4,5.8c5.1,0,9.9-1.9,13.5-5.6l81.6-82c3.6-3.6,5.6-8.6,5.5-13.7c-0.1-5.1-2.3-10-6.1-13.5l-46.1-42.5c-6.3-5.8-7.9-15-3.9-22.6l3.4-6.4c8.6-16.3,17-35.9,25.1-58.2l2.2-5.8c2.7-7.4,9.8-12,17.7-12h55.3c10.4,0,18.1-9.3,18.1-19.7V434.2c0-10.4-7.7-18.6-18.1-18.6h-54.7c-7.5,0-14.3-4.6-17.3-11.5l-2.4-5.8c-2.1-4.9-4.5-10.7-7-16.9c-6.8-16.8-15.2-37.8-24.6-54.2l-3.6-6.3c-4.2-7.5-2.9-16.9,3.3-22.8l52.5-50.9c3.6-3.5,5.7-8.3,5.7-13.4c0-5.1-1.9-9.9-5.5-13.5l-82.2-81.9c-3.6-3.6-8.5-5.6-13.6-5.5c-5.1,0.1-9.9,2.2-13.4,6L699.7,194c-5.7,6.2-14.9,7.7-22.4,3.9l-6.3-3.3c-16.5-8.5-36.1-16.8-58-24.5l-6.1-2.2c-7.5-2.6-12.3-9.8-12.3-17.7V76.3c0-10.4-8.9-19-19.3-19H443.5c-10.4,0-17.8,8.6-17.8,19V151c0,7.9-5.5,15-13,17.7l-6.5,2.2c-20.9,7.5-40.9,16.1-57.4,24.8l-6.3,3.3c-7.4,3.9-16.5,2.4-22.3-3.5L265.1,139c-3.5-3.6-8.4-5.7-13.4-5.7c-5,0-9.9,2-13.5,5.5l-81.9,82.3c-3.6,3.6-5.6,8.5-5.5,13.6c0.1,5.1,2.2,9.9,5.9,13.4l54.8,51.7c6.3,5.9,7.7,15.4,3.5,22.9l-3.6,6.4c-9.2,16.5-17.5,37.3-24.1,54c-2.1,5.4-4.1,10.4-6,14.8l-2.4,5.9c-2.9,7-9.8,11.7-17.4,11.7H86.4c-3.2,0-8.5,3.1-12.8,6.7c-4.4,3.6-6.9,8.9-6.9,14.5l0.1,126.7c0,5.5,2.4,11.1,6.6,14.7c4.4,3.7,9.8,7.5,13.1,7.5h75.7c8,0,15.1,4.6,17.8,12.2l2.2,6.1c6.4,18.4,14.8,37.5,24,55.6l3.2,6.2c3.8,7.4,2.3,16.4-3.7,22.2l-48.5,46.7c-3.6,3.5-5.7,8.3-5.8,13.4c0,5.1,1.9,9.9,5.6,13.5l82.1,81.7c3.6,3.6,8.5,5.6,13.6,5.5c5.1-0.1,9.9-2.3,13.4-6l42.8-45.9c5.9-6.4,15.5-7.8,23.1-3.5L338.6,796.9z"/><path d="M500,302.3c-104,0-188.3,84.3-188.3,188.3S396,679,500,679c104,0,188.3-84.3,188.3-188.3S604,302.3,500,302.3z M500,641.3c-83.2,0-150.7-67.5-150.7-150.7c0-83.2,67.5-150.7,150.7-150.7c83.2,0,150.7,67.5,150.7,150.7C650.7,573.9,583.2,641.3,500,641.3z"/></g>
</svg>