<?xml version="1.0" encoding="utf-8"?>

<svg version="1.1" xmlns="http://www.w3.org/2000/svg" xmlns:xlink="http://www.w3.org/1999/xlink" x="0px" y="0px" viewBox="0 0 1000 1000" enable-background="new 0 0 1000 1000" xml:space="preserve">
<g><path d="M103.8,990c-0.6-8-0.9-16-0.9-24.1c0-198.3,178.1-359.5,397.1-359.5c219,0,397.1,161.3,397.1,359.5c0,8.1-0.3,16.1-0.9,24.1h67.6c0.5-8,0.7-16,0.7-24.1c0-58.1-12.4-114.5-37-167.5c-23.6-51-57.3-96.7-100.2-135.9c-68-62.1-153.2-102.5-245.6-117.5c110.3-35,190.5-138.9,190.5-261.3C772.2,132.9,650.1,10,500,10c-150.1,0-272.2,122.9-272.2,273.9c0,122.4,80.2,226.3,190.5,261.3c-92.4,15-177.7,55.4-245.6,117.5c-42.9,39.2-76.6,84.9-100.2,135.9c-24.6,53-37,109.4-37,167.5c0,8.1,0.2,16.1,0.7,24.1L103.8,990z M297.3,283.9c0-112.5,90.9-204,202.7-204s202.7,91.5,202.7,204c0,112.5-90.9,204-202.7,204S297.3,396.3,297.3,283.9z"/></g>
</svg>
